<?xml version="1.0" encoding="utf-8"?>
<!-- Generator: Adobe Illustrator 27.0.1, SVG Export Plug-In . SVG Version: 6.00 Build 0)  -->
<svg version="1.1" id="Layer_1" xmlns="http://www.w3.org/2000/svg" xmlns:xlink="http://www.w3.org/1999/xlink" x="0px" y="0px"
	 viewBox="0 0 880 291" style="enable-background:new 0 0 880 291;" xml:space="preserve">
<style type="text/css">
	.st0{fill:none;}
	.st1{fill:none;stroke:#000000;}
	.st2{font-family:'ArialMT';}
	.st3{font-size:11px;}
	.st4{font-family:'Arial-BoldMT';}
	.st5{fill:none;stroke:#000000;stroke-opacity:0.15;}
	.st6{fill:#4682B4;}
	.st7{fill:#B27547;}
</style>
<g transform="translate(54,12)">
	<g>
		<g transform="translate(0,0)">
			<rect class="st0" width="1" height="1"/>
			<g>
				<g transform="translate(0,0)">
					<rect class="st0" width="819" height="200"/>
					<g>
						<g transform="translate(0,200)">
							<polygon class="st0" points="0,0 0,0 0,0 							"/>
							<g>
								<line class="st1" x1="21.5" y1="0" x2="21.5" y2="6"/>
								<line class="st1" x1="42.5" y1="0" x2="42.5" y2="6"/>
								<line class="st1" x1="63.5" y1="0" x2="63.5" y2="6"/>
								<line class="st1" x1="84.5" y1="0" x2="84.5" y2="6"/>
								<line class="st1" x1="105.5" y1="0" x2="105.5" y2="6"/>
								<line class="st1" x1="126.5" y1="0" x2="126.5" y2="6"/>
								<line class="st1" x1="147.5" y1="0" x2="147.5" y2="6"/>
								<line class="st1" x1="168.5" y1="0" x2="168.5" y2="6"/>
								<line class="st1" x1="189.5" y1="0" x2="189.5" y2="6"/>
								<line class="st1" x1="210.5" y1="0" x2="210.5" y2="6"/>
								<line class="st1" x1="231.5" y1="0" x2="231.5" y2="6"/>
								<line class="st1" x1="252.5" y1="0" x2="252.5" y2="6"/>
								<line class="st1" x1="273.5" y1="0" x2="273.5" y2="6"/>
								<line class="st1" x1="294.5" y1="0" x2="294.5" y2="6"/>
								<line class="st1" x1="315.5" y1="0" x2="315.5" y2="6"/>
								<line class="st1" x1="336.5" y1="0" x2="336.5" y2="6"/>
								<line class="st1" x1="357.5" y1="0" x2="357.5" y2="6"/>
								<line class="st1" x1="378.5" y1="0" x2="378.5" y2="6"/>
								<line class="st1" x1="399.5" y1="0" x2="399.5" y2="6"/>
								<line class="st1" x1="420.5" y1="0" x2="420.5" y2="6"/>
								<line class="st1" x1="441.5" y1="0" x2="441.5" y2="6"/>
								<line class="st1" x1="462.5" y1="0" x2="462.5" y2="6"/>
								<line class="st1" x1="483.5" y1="0" x2="483.5" y2="6"/>
								<line class="st1" x1="504.5" y1="0" x2="504.5" y2="6"/>
								<line class="st1" x1="525.5" y1="0" x2="525.5" y2="6"/>
								<line class="st1" x1="546.5" y1="0" x2="546.5" y2="6"/>
								<line class="st1" x1="567.5" y1="0" x2="567.5" y2="6"/>
								<line class="st1" x1="588.5" y1="0" x2="588.5" y2="6"/>
								<line class="st1" x1="609.5" y1="0" x2="609.5" y2="6"/>
								<line class="st1" x1="630.5" y1="0" x2="630.5" y2="6"/>
								<line class="st1" x1="651.5" y1="0" x2="651.5" y2="6"/>
								<line class="st1" x1="672.5" y1="0" x2="672.5" y2="6"/>
								<line class="st1" x1="693.5" y1="0" x2="693.5" y2="6"/>
								<line class="st1" x1="714.5" y1="0" x2="714.5" y2="6"/>
								<line class="st1" x1="735.5" y1="0" x2="735.5" y2="6"/>
								<line class="st1" x1="756.5" y1="0" x2="756.5" y2="6"/>
								<line class="st1" x1="777.5" y1="0" x2="777.5" y2="6"/>
								<line class="st1" x1="798.5" y1="0" x2="798.5" y2="6"/>
							</g>
							<g>
								<text transform="matrix(-1.836970e-16 -1 1 -1.836970e-16 24.5 57.915)" class="st2 st3">Not win02</text>
								<text transform="matrix(-1.836970e-16 -1 1 -1.836970e-16 45.5 57.915)" class="st2 st3">Not win04</text>
								<text transform="matrix(-1.836970e-16 -1 1 -1.836970e-16 66.5 57.915)" class="st2 st3">Not win05</text>
								<text transform="matrix(-1.836970e-16 -1 1 -1.836970e-16 87.5 57.915)" class="st2 st3">Not win06</text>
								<text transform="matrix(-1.836970e-16 -1 1 -1.836970e-16 108.5 57.915)" class="st2 st3">Not win07</text>
								<text transform="matrix(-1.836970e-16 -1 1 -1.836970e-16 129.5 57.915)" class="st2 st3">Not win08</text>
								<text transform="matrix(-1.836970e-16 -1 1 -1.836970e-16 150.5 57.915)" class="st2 st3">Not win09</text>
								<text transform="matrix(-1.836970e-16 -1 1 -1.836970e-16 171.5 57.915)" class="st2 st3">Not win10</text>
								<text transform="matrix(-1.836970e-16 -1 1 -1.836970e-16 192.5 57.0986)" class="st2 st3">Not win11</text>
								<text transform="matrix(-1.836970e-16 -1 1 -1.836970e-16 213.5 57.915)" class="st2 st3">Not win12</text>
								<text transform="matrix(-1.836970e-16 -1 1 -1.836970e-16 234.5 57.915)" class="st2 st3">Not win13</text>
								<text transform="matrix(-1.836970e-16 -1 1 -1.836970e-16 255.5 57.915)" class="st2 st3">Not win14</text>
								<text transform="matrix(-1.836970e-16 -1 1 -1.836970e-16 276.5 57.915)" class="st2 st3">Not win15</text>
								<text transform="matrix(-1.836970e-16 -1 1 -1.836970e-16 297.5 57.915)" class="st2 st3">Not win16</text>
								<text transform="matrix(-1.836970e-16 -1 1 -1.836970e-16 318.5 57.915)" class="st2 st3">Not win17</text>
								<text transform="matrix(-1.836970e-16 -1 1 -1.836970e-16 339.5 57.915)" class="st2 st3">Not win18</text>
								<text transform="matrix(-1.836970e-16 -1 1 -1.836970e-16 360.5 57.915)" class="st2 st3">Not win19</text>
								<text transform="matrix(-1.836970e-16 -1 1 -1.836970e-16 381.5 57.915)" class="st2 st3">Not win20</text>
								<text transform="matrix(-1.836970e-16 -1 1 -1.836970e-16 402.5 57.915)" class="st2 st3">Not win21</text>
								<text transform="matrix(-1.836970e-16 -1 1 -1.836970e-16 423.5 40.1797)" class="st2 st3">Win02</text>
								<text transform="matrix(-1.836970e-16 -1 1 -1.836970e-16 444.5 40.1797)" class="st2 st3">Win04</text>
								<text transform="matrix(-1.836970e-16 -1 1 -1.836970e-16 465.5 40.1797)" class="st2 st3">Win05</text>
								<text transform="matrix(-1.836970e-16 -1 1 -1.836970e-16 486.5 40.1797)" class="st2 st3">Win06</text>
								<text transform="matrix(-1.836970e-16 -1 1 -1.836970e-16 507.5 40.1797)" class="st2 st3">Win07</text>
								<text transform="matrix(-1.836970e-16 -1 1 -1.836970e-16 528.5 40.1797)" class="st2 st3">Win08</text>
								<text transform="matrix(-1.836970e-16 -1 1 -1.836970e-16 549.5 40.1797)" class="st2 st3">Win09</text>
								<text transform="matrix(-1.836970e-16 -1 1 -1.836970e-16 570.5 40.1797)" class="st2 st3">Win10</text>
								<text transform="matrix(-1.836970e-16 -1 1 -1.836970e-16 591.5 39.3633)" class="st2 st3">Win11</text>
								<text transform="matrix(-1.836970e-16 -1 1 -1.836970e-16 612.5 40.1797)" class="st2 st3">Win12</text>
								<text transform="matrix(-1.836970e-16 -1 1 -1.836970e-16 633.5 40.1797)" class="st2 st3">Win13</text>
								<text transform="matrix(-1.836970e-16 -1 1 -1.836970e-16 654.5 40.1797)" class="st2 st3">Win14</text>
								<text transform="matrix(-1.836970e-16 -1 1 -1.836970e-16 675.5 40.1797)" class="st2 st3">Win15</text>
								<text transform="matrix(-1.836970e-16 -1 1 -1.836970e-16 696.5 40.1797)" class="st2 st3">Win16</text>
								<text transform="matrix(-1.836970e-16 -1 1 -1.836970e-16 717.5 40.1797)" class="st2 st3">Win17</text>
								<text transform="matrix(-1.836970e-16 -1 1 -1.836970e-16 738.5 40.1797)" class="st2 st3">Win18</text>
								<text transform="matrix(-1.836970e-16 -1 1 -1.836970e-16 759.5 40.1797)" class="st2 st3">Win19</text>
								<text transform="matrix(-1.836970e-16 -1 1 -1.836970e-16 780.5 40.1797)" class="st2 st3">Win20</text>
								<text transform="matrix(-1.836970e-16 -1 1 -1.836970e-16 801.5 40.1797)" class="st2 st3">Win21</text>
							</g>
							<g>
								<path class="st1" d="M0.5,6.5v-6h819v6"/>
							</g>
							<g>
								<text transform="matrix(1 0 0 1 392.4973 71)" class="st4 st3">(state)</text>
							</g>
						</g>
					</g>
					<g>
						<g transform="translate(0,0)">
							<polygon class="st0" points="0,0 0,0 0,0 							"/>
							<g>
								<line class="st5" x1="0" y1="200.5" x2="819" y2="200.5"/>
								<line class="st5" x1="0" y1="175.5" x2="819" y2="175.5"/>
								<line class="st5" x1="0" y1="150.5" x2="819" y2="150.5"/>
								<line class="st5" x1="0" y1="125.5" x2="819" y2="125.5"/>
								<line class="st5" x1="0" y1="100.5" x2="819" y2="100.5"/>
								<line class="st5" x1="0" y1="75.5" x2="819" y2="75.5"/>
								<line class="st5" x1="0" y1="50.5" x2="819" y2="50.5"/>
								<line class="st5" x1="0" y1="25.5" x2="819" y2="25.5"/>
								<line class="st5" x1="0" y1="0.5" x2="819" y2="0.5"/>
							</g>
							<g>
								<line class="st1" x1="-6" y1="200.5" x2="0" y2="200.5"/>
								<line class="st1" x1="-6" y1="175.5" x2="0" y2="175.5"/>
								<line class="st1" x1="-6" y1="150.5" x2="0" y2="150.5"/>
								<line class="st1" x1="-6" y1="125.5" x2="0" y2="125.5"/>
								<line class="st1" x1="-6" y1="100.5" x2="0" y2="100.5"/>
								<line class="st1" x1="-6" y1="75.5" x2="0" y2="75.5"/>
								<line class="st1" x1="-6" y1="50.5" x2="0" y2="50.5"/>
								<line class="st1" x1="-6" y1="25.5" x2="0" y2="25.5"/>
								<line class="st1" x1="-6" y1="0.5" x2="0" y2="0.5"/>
							</g>
							<g>
								<text transform="matrix(1 0 0 1 -15.1177 203.5)" class="st2 st3">0</text>
								<text transform="matrix(1 0 0 1 -30.4092 178.5)" class="st2 st3">0.01</text>
								<text transform="matrix(1 0 0 1 -30.4092 153.5)" class="st2 st3">0.02</text>
								<text transform="matrix(1 0 0 1 -30.4092 128.5)" class="st2 st3">0.03</text>
								<text transform="matrix(1 0 0 1 -30.4092 103.5)" class="st2 st3">0.04</text>
								<text transform="matrix(1 0 0 1 -30.4092 78.5)" class="st2 st3">0.05</text>
								<text transform="matrix(1 0 0 1 -30.4092 53.5)" class="st2 st3">0.06</text>
								<text transform="matrix(1 0 0 1 -30.4092 28.5)" class="st2 st3">0.07</text>
								<text transform="matrix(1 0 0 1 -30.4092 3.5)" class="st2 st3">0.08</text>
							</g>
							<g>
								<path class="st1" d="M-5.5,0.5h6v200h-6"/>
							</g>
							<g>
								<text transform="matrix(6.123234e-17 -1 1 6.123234e-17 -39 126.2861)" class="st4 st3">frequency</text>
							</g>
						</g>
					</g>
					<g>
						<rect x="179" y="114" class="st6" width="20" height="86"/>
						<rect x="242" y="43" class="st6" width="20" height="157"/>
						<rect x="95" y="157" class="st6" width="20" height="43"/>
						<rect x="704" y="149" class="st7" width="20" height="51"/>
						<rect x="221" y="30" class="st6" width="20" height="170"/>
						<rect x="284" y="62" class="st6" width="20" height="138"/>
						<rect x="620" y="131" class="st7" width="20" height="69"/>
						<rect x="74" y="170" class="st6" width="20" height="30"/>
						<rect x="368" y="127" class="st6" width="20" height="73"/>
						<rect x="683" y="146" class="st7" width="20" height="54"/>
						<rect x="536" y="174" class="st7" width="20" height="26"/>
						<rect x="263" y="51" class="st6" width="20" height="149"/>
						<rect x="200" y="38" class="st6" width="20" height="162"/>
						<rect x="641" y="135" class="st7" width="20" height="65"/>
						<rect x="725" y="130" class="st7" width="20" height="70"/>
						<rect x="305" y="74" class="st6" width="20" height="126"/>
						<rect x="788" y="93" class="st7" width="20" height="107"/>
						<rect x="137" y="133" class="st6" width="20" height="67"/>
						<rect x="767" y="15" class="st7" width="20" height="185"/>
						<rect x="11" y="192" class="st6" width="20" height="8"/>
						<rect x="557" y="170" class="st7" width="20" height="30"/>
						<rect x="746" y="112" class="st7" width="20" height="88"/>
						<rect x="599" y="136" class="st7" width="20" height="64"/>
						<rect x="158" y="128" class="st6" width="20" height="72"/>
						<rect x="326" y="107" class="st6" width="20" height="93"/>
						<rect x="116" y="151" class="st6" width="20" height="49"/>
						<rect x="578" y="166" class="st7" width="20" height="34"/>
						<rect x="347" y="135" class="st6" width="20" height="65"/>
						<rect x="494" y="182" class="st7" width="20" height="18"/>
						<rect x="515" y="179" class="st7" width="20" height="21"/>
						<rect x="32" y="192" class="st6" width="20" height="8"/>
						<rect x="662" y="139" class="st7" width="20" height="61"/>
						<rect x="53" y="179" class="st6" width="20" height="21"/>
						<rect x="452" y="191" class="st7" width="20" height="9"/>
						<rect x="389" y="186" class="st6" width="20" height="14"/>
						<rect x="473" y="188" class="st7" width="20" height="12"/>
						<rect x="410" y="197" class="st7" width="20" height="3"/>
						<rect x="431" y="197" class="st7" width="20" height="3"/>
					</g>
				</g>
			</g>
		</g>
	</g>
</g>
</svg>
