<?xml version="1.0" encoding="utf-8"?>
<!-- Generator: Adobe Illustrator 27.0.1, SVG Export Plug-In . SVG Version: 6.00 Build 0)  -->
<svg version="1.1" id="Layer_1" xmlns="http://www.w3.org/2000/svg" xmlns:xlink="http://www.w3.org/1999/xlink" x="0px" y="0px"
	 viewBox="0 0 1123 291" style="enable-background:new 0 0 1123 291;" xml:space="preserve">
<style type="text/css">
	.st0{fill:none;}
	.st1{fill:none;stroke:#000000;}
	.st2{font-family:'ArialMT';}
	.st3{font-size:11px;}
	.st4{font-family:'Arial-BoldMT';}
	.st5{fill:none;stroke:#000000;stroke-opacity:0.15;}
	.st6{fill:#B27547;}
	.st7{fill:#4682B4;}
</style>
<g transform="translate(66,12)">
	<g>
		<g transform="translate(0,0)">
			<rect class="st0" width="1" height="1"/>
			<g>
				<g transform="translate(0,0)">
					<rect class="st0" width="1050" height="200"/>
					<g>
						<g transform="translate(0,200)">
							<polygon class="st0" points="0,0 0,0 0,0 							"/>
							<g>
								<line class="st1" x1="21.5" y1="0" x2="21.5" y2="6"/>
								<line class="st1" x1="42.5" y1="0" x2="42.5" y2="6"/>
								<line class="st1" x1="63.5" y1="0" x2="63.5" y2="6"/>
								<line class="st1" x1="84.5" y1="0" x2="84.5" y2="6"/>
								<line class="st1" x1="105.5" y1="0" x2="105.5" y2="6"/>
								<line class="st1" x1="126.5" y1="0" x2="126.5" y2="6"/>
								<line class="st1" x1="147.5" y1="0" x2="147.5" y2="6"/>
								<line class="st1" x1="168.5" y1="0" x2="168.5" y2="6"/>
								<line class="st1" x1="189.5" y1="0" x2="189.5" y2="6"/>
								<line class="st1" x1="210.5" y1="0" x2="210.5" y2="6"/>
								<line class="st1" x1="231.5" y1="0" x2="231.5" y2="6"/>
								<line class="st1" x1="252.5" y1="0" x2="252.5" y2="6"/>
								<line class="st1" x1="273.5" y1="0" x2="273.5" y2="6"/>
								<line class="st1" x1="294.5" y1="0" x2="294.5" y2="6"/>
								<line class="st1" x1="315.5" y1="0" x2="315.5" y2="6"/>
								<line class="st1" x1="336.5" y1="0" x2="336.5" y2="6"/>
								<line class="st1" x1="357.5" y1="0" x2="357.5" y2="6"/>
								<line class="st1" x1="378.5" y1="0" x2="378.5" y2="6"/>
								<line class="st1" x1="399.5" y1="0" x2="399.5" y2="6"/>
								<line class="st1" x1="420.5" y1="0" x2="420.5" y2="6"/>
								<line class="st1" x1="441.5" y1="0" x2="441.5" y2="6"/>
								<line class="st1" x1="462.5" y1="0" x2="462.5" y2="6"/>
								<line class="st1" x1="483.5" y1="0" x2="483.5" y2="6"/>
								<line class="st1" x1="504.5" y1="0" x2="504.5" y2="6"/>
								<line class="st1" x1="525.5" y1="0" x2="525.5" y2="6"/>
								<line class="st1" x1="546.5" y1="0" x2="546.5" y2="6"/>
								<line class="st1" x1="567.5" y1="0" x2="567.5" y2="6"/>
								<line class="st1" x1="588.5" y1="0" x2="588.5" y2="6"/>
								<line class="st1" x1="609.5" y1="0" x2="609.5" y2="6"/>
								<line class="st1" x1="630.5" y1="0" x2="630.5" y2="6"/>
								<line class="st1" x1="651.5" y1="0" x2="651.5" y2="6"/>
								<line class="st1" x1="672.5" y1="0" x2="672.5" y2="6"/>
								<line class="st1" x1="693.5" y1="0" x2="693.5" y2="6"/>
								<line class="st1" x1="714.5" y1="0" x2="714.5" y2="6"/>
								<line class="st1" x1="735.5" y1="0" x2="735.5" y2="6"/>
								<line class="st1" x1="756.5" y1="0" x2="756.5" y2="6"/>
								<line class="st1" x1="777.5" y1="0" x2="777.5" y2="6"/>
								<line class="st1" x1="798.5" y1="0" x2="798.5" y2="6"/>
								<line class="st1" x1="819.5" y1="0" x2="819.5" y2="6"/>
								<line class="st1" x1="840.5" y1="0" x2="840.5" y2="6"/>
								<line class="st1" x1="861.5" y1="0" x2="861.5" y2="6"/>
								<line class="st1" x1="882.5" y1="0" x2="882.5" y2="6"/>
								<line class="st1" x1="903.5" y1="0" x2="903.5" y2="6"/>
								<line class="st1" x1="924.5" y1="0" x2="924.5" y2="6"/>
								<line class="st1" x1="945.5" y1="0" x2="945.5" y2="6"/>
								<line class="st1" x1="966.5" y1="0" x2="966.5" y2="6"/>
								<line class="st1" x1="987.5" y1="0" x2="987.5" y2="6"/>
								<line class="st1" x1="1008.5" y1="0" x2="1008.5" y2="6"/>
								<line class="st1" x1="1029.5" y1="0" x2="1029.5" y2="6"/>
							</g>
							<g>
								<text transform="matrix(-1.836970e-16 -1 1 -1.836970e-16 24.5 57.915)" class="st2 st3">Not win02</text>
								<text transform="matrix(-1.836970e-16 -1 1 -1.836970e-16 45.5 57.915)" class="st2 st3">Not win03</text>
								<text transform="matrix(-1.836970e-16 -1 1 -1.836970e-16 66.5 57.915)" class="st2 st3">Not win04</text>
								<text transform="matrix(-1.836970e-16 -1 1 -1.836970e-16 87.5 57.915)" class="st2 st3">Not win05</text>
								<text transform="matrix(-1.836970e-16 -1 1 -1.836970e-16 108.5 57.915)" class="st2 st3">Not win06</text>
								<text transform="matrix(-1.836970e-16 -1 1 -1.836970e-16 129.5 57.915)" class="st2 st3">Not win07</text>
								<text transform="matrix(-1.836970e-16 -1 1 -1.836970e-16 150.5 57.915)" class="st2 st3">Not win08</text>
								<text transform="matrix(-1.836970e-16 -1 1 -1.836970e-16 171.5 57.915)" class="st2 st3">Not win09</text>
								<text transform="matrix(-1.836970e-16 -1 1 -1.836970e-16 192.5 57.915)" class="st2 st3">Not win10</text>
								<text transform="matrix(-1.836970e-16 -1 1 -1.836970e-16 213.5 57.0986)" class="st2 st3">Not win11</text>
								<text transform="matrix(-1.836970e-16 -1 1 -1.836970e-16 234.5 57.915)" class="st2 st3">Not win12</text>
								<text transform="matrix(-1.836970e-16 -1 1 -1.836970e-16 255.5 57.915)" class="st2 st3">Not win13</text>
								<text transform="matrix(-1.836970e-16 -1 1 -1.836970e-16 276.5 57.915)" class="st2 st3">Not win14</text>
								<text transform="matrix(-1.836970e-16 -1 1 -1.836970e-16 297.5 57.915)" class="st2 st3">Not win15</text>
								<text transform="matrix(-1.836970e-16 -1 1 -1.836970e-16 318.5 57.915)" class="st2 st3">Not win16</text>
								<text transform="matrix(-1.836970e-16 -1 1 -1.836970e-16 339.5 57.915)" class="st2 st3">Not win17</text>
								<text transform="matrix(-1.836970e-16 -1 1 -1.836970e-16 360.5 57.915)" class="st2 st3">Not win18</text>
								<text transform="matrix(-1.836970e-16 -1 1 -1.836970e-16 381.5 57.915)" class="st2 st3">Not win19</text>
								<text transform="matrix(-1.836970e-16 -1 1 -1.836970e-16 402.5 57.915)" class="st2 st3">Not win20</text>
								<text transform="matrix(-1.836970e-16 -1 1 -1.836970e-16 423.5 57.915)" class="st2 st3">Not win21</text>
								<text transform="matrix(-1.836970e-16 -1 1 -1.836970e-16 444.5 57.915)" class="st2 st3">Not win22</text>
								<text transform="matrix(-1.836970e-16 -1 1 -1.836970e-16 465.5 57.915)" class="st2 st3">Not win23</text>
								<text transform="matrix(-1.836970e-16 -1 1 -1.836970e-16 486.5 57.915)" class="st2 st3">Not win24</text>
								<text transform="matrix(-1.836970e-16 -1 1 -1.836970e-16 507.5 57.915)" class="st2 st3">Not win25</text>
								<text transform="matrix(-1.836970e-16 -1 1 -1.836970e-16 528.5 57.915)" class="st2 st3">Not win26</text>
								<text transform="matrix(-1.836970e-16 -1 1 -1.836970e-16 549.5 57.915)" class="st2 st3">Not win27</text>
								<text transform="matrix(-1.836970e-16 -1 1 -1.836970e-16 570.5 57.915)" class="st2 st3">Not win28</text>
								<text transform="matrix(-1.836970e-16 -1 1 -1.836970e-16 591.5 57.915)" class="st2 st3">Not win29</text>
								<text transform="matrix(-1.836970e-16 -1 1 -1.836970e-16 612.5 57.915)" class="st2 st3">Not win30</text>
								<text transform="matrix(-1.836970e-16 -1 1 -1.836970e-16 633.5 57.915)" class="st2 st3">Not win31</text>
								<text transform="matrix(-1.836970e-16 -1 1 -1.836970e-16 654.5 40.1797)" class="st2 st3">Win02</text>
								<text transform="matrix(-1.836970e-16 -1 1 -1.836970e-16 675.5 40.1797)" class="st2 st3">Win04</text>
								<text transform="matrix(-1.836970e-16 -1 1 -1.836970e-16 696.5 40.1797)" class="st2 st3">Win05</text>
								<text transform="matrix(-1.836970e-16 -1 1 -1.836970e-16 717.5 40.1797)" class="st2 st3">Win06</text>
								<text transform="matrix(-1.836970e-16 -1 1 -1.836970e-16 738.5 40.1797)" class="st2 st3">Win07</text>
								<text transform="matrix(-1.836970e-16 -1 1 -1.836970e-16 759.5 40.1797)" class="st2 st3">Win08</text>
								<text transform="matrix(-1.836970e-16 -1 1 -1.836970e-16 780.5 40.1797)" class="st2 st3">Win09</text>
								<text transform="matrix(-1.836970e-16 -1 1 -1.836970e-16 801.5 40.1797)" class="st2 st3">Win10</text>
								<text transform="matrix(-1.836970e-16 -1 1 -1.836970e-16 822.5 39.3633)" class="st2 st3">Win11</text>
								<text transform="matrix(-1.836970e-16 -1 1 -1.836970e-16 843.5 40.1797)" class="st2 st3">Win12</text>
								<text transform="matrix(-1.836970e-16 -1 1 -1.836970e-16 864.5 40.1797)" class="st2 st3">Win13</text>
								<text transform="matrix(-1.836970e-16 -1 1 -1.836970e-16 885.5 40.1797)" class="st2 st3">Win14</text>
								<text transform="matrix(-1.836970e-16 -1 1 -1.836970e-16 906.5 40.1797)" class="st2 st3">Win15</text>
								<text transform="matrix(-1.836970e-16 -1 1 -1.836970e-16 927.5 40.1797)" class="st2 st3">Win16</text>
								<text transform="matrix(-1.836970e-16 -1 1 -1.836970e-16 948.5 40.1797)" class="st2 st3">Win17</text>
								<text transform="matrix(-1.836970e-16 -1 1 -1.836970e-16 969.5 40.1797)" class="st2 st3">Win18</text>
								<text transform="matrix(-1.836970e-16 -1 1 -1.836970e-16 990.5 40.1797)" class="st2 st3">Win19</text>
								<text transform="matrix(-1.836970e-16 -1 1 -1.836970e-16 1011.5 40.1797)" class="st2 st3">Win20</text>
								<text transform="matrix(-1.836970e-16 -1 1 -1.836970e-16 1032.5 40.1797)" class="st2 st3">Win21</text>
							</g>
							<g>
								<path class="st1" d="M0.5,6.5v-6h1050v6"/>
							</g>
							<g>
								<text transform="matrix(1 0 0 1 508.4973 71)" class="st4 st3">(state)</text>
							</g>
						</g>
					</g>
					<g>
						<g transform="translate(0,0)">
							<polygon class="st0" points="0,0 0,0 0,0 							"/>
							<g>
								<line class="st5" x1="0" y1="200.5" x2="1050" y2="200.5"/>
								<line class="st5" x1="0" y1="185.5" x2="1050" y2="185.5"/>
								<line class="st5" x1="0" y1="169.5" x2="1050" y2="169.5"/>
								<line class="st5" x1="0" y1="154.5" x2="1050" y2="154.5"/>
								<line class="st5" x1="0" y1="138.5" x2="1050" y2="138.5"/>
								<line class="st5" x1="0" y1="123.5" x2="1050" y2="123.5"/>
								<line class="st5" x1="0" y1="108.5" x2="1050" y2="108.5"/>
								<line class="st5" x1="0" y1="92.5" x2="1050" y2="92.5"/>
								<line class="st5" x1="0" y1="77.5" x2="1050" y2="77.5"/>
								<line class="st5" x1="0" y1="62.5" x2="1050" y2="62.5"/>
								<line class="st5" x1="0" y1="46.5" x2="1050" y2="46.5"/>
								<line class="st5" x1="0" y1="31.5" x2="1050" y2="31.5"/>
								<line class="st5" x1="0" y1="15.5" x2="1050" y2="15.5"/>
								<line class="st5" x1="0" y1="0.5" x2="1050" y2="0.5"/>
							</g>
							<g>
								<line class="st1" x1="-6" y1="200.5" x2="0" y2="200.5"/>
								<line class="st1" x1="-6" y1="185.5" x2="0" y2="185.5"/>
								<line class="st1" x1="-6" y1="169.5" x2="0" y2="169.5"/>
								<line class="st1" x1="-6" y1="154.5" x2="0" y2="154.5"/>
								<line class="st1" x1="-6" y1="138.5" x2="0" y2="138.5"/>
								<line class="st1" x1="-6" y1="123.5" x2="0" y2="123.5"/>
								<line class="st1" x1="-6" y1="108.5" x2="0" y2="108.5"/>
								<line class="st1" x1="-6" y1="92.5" x2="0" y2="92.5"/>
								<line class="st1" x1="-6" y1="77.5" x2="0" y2="77.5"/>
								<line class="st1" x1="-6" y1="62.5" x2="0" y2="62.5"/>
								<line class="st1" x1="-6" y1="46.5" x2="0" y2="46.5"/>
								<line class="st1" x1="-6" y1="31.5" x2="0" y2="31.5"/>
								<line class="st1" x1="-6" y1="15.5" x2="0" y2="15.5"/>
								<line class="st1" x1="-6" y1="0.5" x2="0" y2="0.5"/>
							</g>
							<g>
								<text transform="matrix(1 0 0 1 -24.2915 203.5)" class="st2 st3">0.0</text>
								<text transform="matrix(1 0 0 1 -42.6445 188.5)" class="st2 st3">0.0050</text>
								<text transform="matrix(1 0 0 1 -36.5269 172.5)" class="st2 st3">0.010</text>
								<text transform="matrix(1 0 0 1 -36.5269 157.5)" class="st2 st3">0.015</text>
								<text transform="matrix(1 0 0 1 -36.5269 141.5)" class="st2 st3">0.020</text>
								<text transform="matrix(1 0 0 1 -36.5269 126.5)" class="st2 st3">0.025</text>
								<text transform="matrix(1 0 0 1 -36.5269 111.5)" class="st2 st3">0.030</text>
								<text transform="matrix(1 0 0 1 -36.5269 95.5)" class="st2 st3">0.035</text>
								<text transform="matrix(1 0 0 1 -36.5269 80.5)" class="st2 st3">0.040</text>
								<text transform="matrix(1 0 0 1 -36.5269 65.5)" class="st2 st3">0.045</text>
								<text transform="matrix(1 0 0 1 -36.5269 49.5)" class="st2 st3">0.050</text>
								<text transform="matrix(1 0 0 1 -36.5269 34.5)" class="st2 st3">0.055</text>
								<text transform="matrix(1 0 0 1 -36.5269 18.5)" class="st2 st3">0.060</text>
								<text transform="matrix(1 0 0 1 -36.5269 3.5)" class="st2 st3">0.065</text>
							</g>
							<g>
								<path class="st1" d="M-5.5,0.5h6v200h-6"/>
							</g>
							<g>
								<text transform="matrix(6.123234e-17 -1 1 6.123234e-17 -51 126.2861)" class="st4 st3">frequency</text>
							</g>
						</g>
					</g>
					<g>
						<rect x="872" y="140" class="st6" width="20" height="60"/>
						<rect x="200" y="123" class="st7" width="20" height="77"/>
						<rect x="389" y="119" class="st7" width="20" height="81"/>
						<rect x="977" y="90" class="st6" width="20" height="110"/>
						<rect x="1019" y="43" class="st6" width="20" height="157"/>
						<rect x="179" y="135" class="st7" width="20" height="65"/>
						<rect x="914" y="141" class="st6" width="20" height="59"/>
						<rect x="599" y="166" class="st7" width="20" height="34"/>
						<rect x="578" y="170" class="st7" width="20" height="30"/>
						<rect x="263" y="46" class="st7" width="20" height="154"/>
						<rect x="137" y="158" class="st7" width="20" height="42"/>
						<rect x="116" y="164" class="st7" width="20" height="36"/>
						<rect x="305" y="57" class="st7" width="20" height="143"/>
						<rect x="998" y="3" class="st6" width="20" height="197"/>
						<rect x="452" y="121" class="st7" width="20" height="79"/>
						<rect x="221" y="54" class="st7" width="20" height="146"/>
						<rect x="242" y="38" class="st7" width="20" height="162"/>
						<rect x="494" y="137" class="st7" width="20" height="63"/>
						<rect x="704" y="190" class="st6" width="20" height="10"/>
						<rect x="95" y="175" class="st7" width="20" height="25"/>
						<rect x="326" y="55" class="st7" width="20" height="145"/>
						<rect x="473" y="134" class="st7" width="20" height="66"/>
						<rect x="851" y="134" class="st6" width="20" height="66"/>
						<rect x="284" y="46" class="st7" width="20" height="154"/>
						<rect x="935" y="140" class="st6" width="20" height="60"/>
						<rect x="515" y="149" class="st7" width="20" height="51"/>
						<rect x="368" y="118" class="st7" width="20" height="82"/>
						<rect x="746" y="182" class="st6" width="20" height="18"/>
						<rect x="830" y="143" class="st6" width="20" height="57"/>
						<rect x="347" y="88" class="st7" width="20" height="112"/>
						<rect x="431" y="114" class="st7" width="20" height="86"/>
						<rect x="158" y="143" class="st7" width="20" height="57"/>
						<rect x="893" y="138" class="st6" width="20" height="62"/>
						<rect x="956" y="118" class="st6" width="20" height="82"/>
						<rect x="410" y="180" class="st7" width="20" height="20"/>
						<rect x="767" y="178" class="st6" width="20" height="22"/>
						<rect x="662" y="197" class="st6" width="20" height="3"/>
						<rect x="536" y="152" class="st7" width="20" height="48"/>
						<rect x="74" y="181" class="st7" width="20" height="19"/>
						<rect x="557" y="162" class="st7" width="20" height="38"/>
						<rect x="788" y="175" class="st6" width="20" height="25"/>
						<rect x="53" y="193" class="st7" width="20" height="7"/>
						<rect x="809" y="170" class="st6" width="20" height="30"/>
						<rect x="683" y="193" class="st6" width="20" height="7"/>
						<rect x="725" y="186" class="st6" width="20" height="14"/>
						<rect x="641" y="198" class="st6" width="20" height="2"/>
						<rect x="11" y="193" class="st7" width="20" height="7"/>
						<rect x="620" y="193" class="st7" width="20" height="7"/>
						<polygon class="st7" points="32,200 52,200 52,200 						"/>
					</g>
				</g>
			</g>
		</g>
	</g>
</g>
</svg>
