<svg class="marks" width="1069" height="291" version="1.1" xmlns="http://www.w3.org/2000/svg" xmlns:xlink="http://www.w3.org/1999/xlink"><g transform="translate(54,12)"><g class="mark-group"><g transform="translate(0,0)"><rect class="background" width="1" height="1" style="fill: none;"></rect><g class="mark-group root"><g transform="translate(0,0)"><rect class="background" width="1008" height="200" style="fill: none;"></rect><g class="mark-group"><g transform="translate(0,200)"><rect class="background" width="0" height="0" style="pointer-events: none; fill: none;"></rect><g class="mark-rule" style="pointer-events: none;"></g><g class="mark-rule" style="pointer-events: none;"><line transform="translate(21.5,0)" x2="0" y2="6" style="fill: none; stroke: #000; stroke-width: 1; opacity: 1;"></line><line transform="translate(42.5,0)" x2="0" y2="6" style="fill: none; stroke: #000; stroke-width: 1; opacity: 1;"></line><line transform="translate(63.5,0)" x2="0" y2="6" style="fill: none; stroke: #000; stroke-width: 1; opacity: 1;"></line><line transform="translate(84.5,0)" x2="0" y2="6" style="fill: none; stroke: #000; stroke-width: 1; opacity: 1;"></line><line transform="translate(105.5,0)" x2="0" y2="6" style="fill: none; stroke: #000; stroke-width: 1; opacity: 1;"></line><line transform="translate(126.5,0)" x2="0" y2="6" style="fill: none; stroke: #000; stroke-width: 1; opacity: 1;"></line><line transform="translate(147.5,0)" x2="0" y2="6" style="fill: none; stroke: #000; stroke-width: 1; opacity: 1;"></line><line transform="translate(168.5,0)" x2="0" y2="6" style="fill: none; stroke: #000; stroke-width: 1; opacity: 1;"></line><line transform="translate(189.5,0)" x2="0" y2="6" style="fill: none; stroke: #000; stroke-width: 1; opacity: 1;"></line><line transform="translate(210.5,0)" x2="0" y2="6" style="fill: none; stroke: #000; stroke-width: 1; opacity: 1;"></line><line transform="translate(231.5,0)" x2="0" y2="6" style="fill: none; stroke: #000; stroke-width: 1; opacity: 1;"></line><line transform="translate(252.5,0)" x2="0" y2="6" style="fill: none; stroke: #000; stroke-width: 1; opacity: 1;"></line><line transform="translate(273.5,0)" x2="0" y2="6" style="fill: none; stroke: #000; stroke-width: 1; opacity: 1;"></line><line transform="translate(294.5,0)" x2="0" y2="6" style="fill: none; stroke: #000; stroke-width: 1; opacity: 1;"></line><line transform="translate(315.5,0)" x2="0" y2="6" style="fill: none; stroke: #000; stroke-width: 1; opacity: 1;"></line><line transform="translate(336.5,0)" x2="0" y2="6" style="fill: none; stroke: #000; stroke-width: 1; opacity: 1;"></line><line transform="translate(357.5,0)" x2="0" y2="6" style="fill: none; stroke: #000; stroke-width: 1; opacity: 1;"></line><line transform="translate(378.5,0)" x2="0" y2="6" style="fill: none; stroke: #000; stroke-width: 1; opacity: 1;"></line><line transform="translate(399.5,0)" x2="0" y2="6" style="fill: none; stroke: #000; stroke-width: 1; opacity: 1;"></line><line transform="translate(420.5,0)" x2="0" y2="6" style="fill: none; stroke: #000; stroke-width: 1; opacity: 1;"></line><line transform="translate(441.5,0)" x2="0" y2="6" style="fill: none; stroke: #000; stroke-width: 1; opacity: 1;"></line><line transform="translate(462.5,0)" x2="0" y2="6" style="fill: none; stroke: #000; stroke-width: 1; opacity: 1;"></line><line transform="translate(483.5,0)" x2="0" y2="6" style="fill: none; stroke: #000; stroke-width: 1; opacity: 1;"></line><line transform="translate(504.5,0)" x2="0" y2="6" style="fill: none; stroke: #000; stroke-width: 1; opacity: 1;"></line><line transform="translate(525.5,0)" x2="0" y2="6" style="fill: none; stroke: #000; stroke-width: 1; opacity: 1;"></line><line transform="translate(546.5,0)" x2="0" y2="6" style="fill: none; stroke: #000; stroke-width: 1; opacity: 1;"></line><line transform="translate(567.5,0)" x2="0" y2="6" style="fill: none; stroke: #000; stroke-width: 1; opacity: 1;"></line><line transform="translate(588.5,0)" x2="0" y2="6" style="fill: none; stroke: #000; stroke-width: 1; opacity: 1;"></line><line transform="translate(609.5,0)" x2="0" y2="6" style="fill: none; stroke: #000; stroke-width: 1; opacity: 1;"></line><line transform="translate(630.5,0)" x2="0" y2="6" style="fill: none; stroke: #000; stroke-width: 1; opacity: 1;"></line><line transform="translate(651.5,0)" x2="0" y2="6" style="fill: none; stroke: #000; stroke-width: 1; opacity: 1;"></line><line transform="translate(672.5,0)" x2="0" y2="6" style="fill: none; stroke: #000; stroke-width: 1; opacity: 1;"></line><line transform="translate(693.5,0)" x2="0" y2="6" style="fill: none; stroke: #000; stroke-width: 1; opacity: 1;"></line><line transform="translate(714.5,0)" x2="0" y2="6" style="fill: none; stroke: #000; stroke-width: 1; opacity: 1;"></line><line transform="translate(735.5,0)" x2="0" y2="6" style="fill: none; stroke: #000; stroke-width: 1; opacity: 1;"></line><line transform="translate(756.5,0)" x2="0" y2="6" style="fill: none; stroke: #000; stroke-width: 1; opacity: 1;"></line><line transform="translate(777.5,0)" x2="0" y2="6" style="fill: none; stroke: #000; stroke-width: 1; opacity: 1;"></line><line transform="translate(798.5,0)" x2="0" y2="6" style="fill: none; stroke: #000; stroke-width: 1; opacity: 1;"></line><line transform="translate(819.5,0)" x2="0" y2="6" style="fill: none; stroke: #000; stroke-width: 1; opacity: 1;"></line><line transform="translate(840.5,0)" x2="0" y2="6" style="fill: none; stroke: #000; stroke-width: 1; opacity: 1;"></line><line transform="translate(861.5,0)" x2="0" y2="6" style="fill: none; stroke: #000; stroke-width: 1; opacity: 1;"></line><line transform="translate(882.5,0)" x2="0" y2="6" style="fill: none; stroke: #000; stroke-width: 1; opacity: 1;"></line><line transform="translate(903.5,0)" x2="0" y2="6" style="fill: none; stroke: #000; stroke-width: 1; opacity: 1;"></line><line transform="translate(924.5,0)" x2="0" y2="6" style="fill: none; stroke: #000; stroke-width: 1; opacity: 1;"></line><line transform="translate(945.5,0)" x2="0" y2="6" style="fill: none; stroke: #000; stroke-width: 1; opacity: 1;"></line><line transform="translate(966.5,0)" x2="0" y2="6" style="fill: none; stroke: #000; stroke-width: 1; opacity: 1;"></line><line transform="translate(987.5,0)" x2="0" y2="6" style="fill: none; stroke: #000; stroke-width: 1; opacity: 1;"></line></g><g class="mark-rule" style="pointer-events: none;"></g><g class="mark-text"><text text-anchor="end" transform="translate(21.5,9) rotate(270) translate(0,3)" style="font: 11px sans-serif; fill: #000; opacity: 1;">Not win03</text><text text-anchor="end" transform="translate(42.5,9) rotate(270) translate(0,3)" style="font: 11px sans-serif; fill: #000; opacity: 1;">Not win04</text><text text-anchor="end" transform="translate(63.5,9) rotate(270) translate(0,3)" style="font: 11px sans-serif; fill: #000; opacity: 1;">Not win05</text><text text-anchor="end" transform="translate(84.5,9) rotate(270) translate(0,3)" style="font: 11px sans-serif; fill: #000; opacity: 1;">Not win06</text><text text-anchor="end" transform="translate(105.5,9) rotate(270) translate(0,3)" style="font: 11px sans-serif; fill: #000; opacity: 1;">Not win07</text><text text-anchor="end" transform="translate(126.5,9) rotate(270) translate(0,3)" style="font: 11px sans-serif; fill: #000; opacity: 1;">Not win08</text><text text-anchor="end" transform="translate(147.5,9) rotate(270) translate(0,3)" style="font: 11px sans-serif; fill: #000; opacity: 1;">Not win09</text><text text-anchor="end" transform="translate(168.5,9) rotate(270) translate(0,3)" style="font: 11px sans-serif; fill: #000; opacity: 1;">Not win10</text><text text-anchor="end" transform="translate(189.5,9) rotate(270) translate(0,3)" style="font: 11px sans-serif; fill: #000; opacity: 1;">Not win11</text><text text-anchor="end" transform="translate(210.5,9) rotate(270) translate(0,3)" style="font: 11px sans-serif; fill: #000; opacity: 1;">Not win12</text><text text-anchor="end" transform="translate(231.5,9) rotate(270) translate(0,3)" style="font: 11px sans-serif; fill: #000; opacity: 1;">Not win13</text><text text-anchor="end" transform="translate(252.5,9) rotate(270) translate(0,3)" style="font: 11px sans-serif; fill: #000; opacity: 1;">Not win14</text><text text-anchor="end" transform="translate(273.5,9) rotate(270) translate(0,3)" style="font: 11px sans-serif; fill: #000; opacity: 1;">Not win15</text><text text-anchor="end" transform="translate(294.5,9) rotate(270) translate(0,3)" style="font: 11px sans-serif; fill: #000; opacity: 1;">Not win16</text><text text-anchor="end" transform="translate(315.5,9) rotate(270) translate(0,3)" style="font: 11px sans-serif; fill: #000; opacity: 1;">Not win17</text><text text-anchor="end" transform="translate(336.5,9) rotate(270) translate(0,3)" style="font: 11px sans-serif; fill: #000; opacity: 1;">Not win18</text><text text-anchor="end" transform="translate(357.5,9) rotate(270) translate(0,3)" style="font: 11px sans-serif; fill: #000; opacity: 1;">Not win19</text><text text-anchor="end" transform="translate(378.5,9) rotate(270) translate(0,3)" style="font: 11px sans-serif; fill: #000; opacity: 1;">Not win20</text><text text-anchor="end" transform="translate(399.5,9) rotate(270) translate(0,3)" style="font: 11px sans-serif; fill: #000; opacity: 1;">Not win21</text><text text-anchor="end" transform="translate(420.5,9) rotate(270) translate(0,3)" style="font: 11px sans-serif; fill: #000; opacity: 1;">Not win22</text><text text-anchor="end" transform="translate(441.5,9) rotate(270) translate(0,3)" style="font: 11px sans-serif; fill: #000; opacity: 1;">Not win23</text><text text-anchor="end" transform="translate(462.5,9) rotate(270) translate(0,3)" style="font: 11px sans-serif; fill: #000; opacity: 1;">Not win24</text><text text-anchor="end" transform="translate(483.5,9) rotate(270) translate(0,3)" style="font: 11px sans-serif; fill: #000; opacity: 1;">Not win25</text><text text-anchor="end" transform="translate(504.5,9) rotate(270) translate(0,3)" style="font: 11px sans-serif; fill: #000; opacity: 1;">Not win26</text><text text-anchor="end" transform="translate(525.5,9) rotate(270) translate(0,3)" style="font: 11px sans-serif; fill: #000; opacity: 1;">Not win27</text><text text-anchor="end" transform="translate(546.5,9) rotate(270) translate(0,3)" style="font: 11px sans-serif; fill: #000; opacity: 1;">Not win28</text><text text-anchor="end" transform="translate(567.5,9) rotate(270) translate(0,3)" style="font: 11px sans-serif; fill: #000; opacity: 1;">Not win29</text><text text-anchor="end" transform="translate(588.5,9) rotate(270) translate(0,3)" style="font: 11px sans-serif; fill: #000; opacity: 1;">Not win30</text><text text-anchor="end" transform="translate(609.5,9) rotate(270) translate(0,3)" style="font: 11px sans-serif; fill: #000; opacity: 1;">Win03</text><text text-anchor="end" transform="translate(630.5,9) rotate(270) translate(0,3)" style="font: 11px sans-serif; fill: #000; opacity: 1;">Win04</text><text text-anchor="end" transform="translate(651.5,9) rotate(270) translate(0,3)" style="font: 11px sans-serif; fill: #000; opacity: 1;">Win05</text><text text-anchor="end" transform="translate(672.5,9) rotate(270) translate(0,3)" style="font: 11px sans-serif; fill: #000; opacity: 1;">Win06</text><text text-anchor="end" transform="translate(693.5,9) rotate(270) translate(0,3)" style="font: 11px sans-serif; fill: #000; opacity: 1;">Win07</text><text text-anchor="end" transform="translate(714.5,9) rotate(270) translate(0,3)" style="font: 11px sans-serif; fill: #000; opacity: 1;">Win08</text><text text-anchor="end" transform="translate(735.5,9) rotate(270) translate(0,3)" style="font: 11px sans-serif; fill: #000; opacity: 1;">Win09</text><text text-anchor="end" transform="translate(756.5,9) rotate(270) translate(0,3)" style="font: 11px sans-serif; fill: #000; opacity: 1;">Win10</text><text text-anchor="end" transform="translate(777.5,9) rotate(270) translate(0,3)" style="font: 11px sans-serif; fill: #000; opacity: 1;">Win11</text><text text-anchor="end" transform="translate(798.5,9) rotate(270) translate(0,3)" style="font: 11px sans-serif; fill: #000; opacity: 1;">Win12</text><text text-anchor="end" transform="translate(819.5,9) rotate(270) translate(0,3)" style="font: 11px sans-serif; fill: #000; opacity: 1;">Win13</text><text text-anchor="end" transform="translate(840.5,9) rotate(270) translate(0,3)" style="font: 11px sans-serif; fill: #000; opacity: 1;">Win14</text><text text-anchor="end" transform="translate(861.5,9) rotate(270) translate(0,3)" style="font: 11px sans-serif; fill: #000; opacity: 1;">Win15</text><text text-anchor="end" transform="translate(882.5,9) rotate(270) translate(0,3)" style="font: 11px sans-serif; fill: #000; opacity: 1;">Win16</text><text text-anchor="end" transform="translate(903.5,9) rotate(270) translate(0,3)" style="font: 11px sans-serif; fill: #000; opacity: 1;">Win17</text><text text-anchor="end" transform="translate(924.5,9) rotate(270) translate(0,3)" style="font: 11px sans-serif; fill: #000; opacity: 1;">Win18</text><text text-anchor="end" transform="translate(945.5,9) rotate(270) translate(0,3)" style="font: 11px sans-serif; fill: #000; opacity: 1;">Win19</text><text text-anchor="end" transform="translate(966.5,9) rotate(270) translate(0,3)" style="font: 11px sans-serif; fill: #000; opacity: 1;">Win20</text><text text-anchor="end" transform="translate(987.5,9) rotate(270) translate(0,3)" style="font: 11px sans-serif; fill: #000; opacity: 1;">Win21</text></g><g class="mark-path" style="pointer-events: none;"><path transform="translate(0.5,0.5)" d="M0,6V0H1008V6" style="fill: none; stroke: #000; stroke-width: 1;"></path></g><g class="mark-text"><text text-anchor="middle" transform="translate(504,71)" style="font: bold 11px sans-serif; fill: #000;">(state)</text></g></g></g><g class="mark-group"><g transform="translate(0,0)"><rect class="background" width="0" height="0" style="pointer-events: none; fill: none;"></rect><g class="mark-rule" style="pointer-events: none;"><line transform="translate(0,200.5)" x2="1008" y2="0" style="fill: none; stroke: #000; stroke-opacity: 0.15; opacity: 1;"></line><line transform="translate(0,175.5)" x2="1008" y2="0" style="fill: none; stroke: #000; stroke-opacity: 0.15; opacity: 1;"></line><line transform="translate(0,150.5)" x2="1008" y2="0" style="fill: none; stroke: #000; stroke-opacity: 0.15; opacity: 1;"></line><line transform="translate(0,125.5)" x2="1008" y2="0" style="fill: none; stroke: #000; stroke-opacity: 0.15; opacity: 1;"></line><line transform="translate(0,100.5)" x2="1008" y2="0" style="fill: none; stroke: #000; stroke-opacity: 0.15; opacity: 1;"></line><line transform="translate(0,75.5)" x2="1008" y2="0" style="fill: none; stroke: #000; stroke-opacity: 0.15; opacity: 1;"></line><line transform="translate(0,50.5)" x2="1008" y2="0" style="fill: none; stroke: #000; stroke-opacity: 0.15; opacity: 1;"></line><line transform="translate(0,25.5)" x2="1008" y2="0" style="fill: none; stroke: #000; stroke-opacity: 0.15; opacity: 1;"></line><line transform="translate(0,0.5)" x2="1008" y2="0" style="fill: none; stroke: #000; stroke-opacity: 0.15; opacity: 1;"></line></g><g class="mark-rule" style="pointer-events: none;"><line transform="translate(-6,200.5)" x2="6" y2="0" style="fill: none; stroke: #000; stroke-width: 1; opacity: 1;"></line><line transform="translate(-6,175.5)" x2="6" y2="0" style="fill: none; stroke: #000; stroke-width: 1; opacity: 1;"></line><line transform="translate(-6,150.5)" x2="6" y2="0" style="fill: none; stroke: #000; stroke-width: 1; opacity: 1;"></line><line transform="translate(-6,125.5)" x2="6" y2="0" style="fill: none; stroke: #000; stroke-width: 1; opacity: 1;"></line><line transform="translate(-6,100.5)" x2="6" y2="0" style="fill: none; stroke: #000; stroke-width: 1; opacity: 1;"></line><line transform="translate(-6,75.5)" x2="6" y2="0" style="fill: none; stroke: #000; stroke-width: 1; opacity: 1;"></line><line transform="translate(-6,50.5)" x2="6" y2="0" style="fill: none; stroke: #000; stroke-width: 1; opacity: 1;"></line><line transform="translate(-6,25.5)" x2="6" y2="0" style="fill: none; stroke: #000; stroke-width: 1; opacity: 1;"></line><line transform="translate(-6,0.5)" x2="6" y2="0" style="fill: none; stroke: #000; stroke-width: 1; opacity: 1;"></line></g><g class="mark-rule" style="pointer-events: none;"></g><g class="mark-text"><text text-anchor="end" transform="translate(-9,203.5)" style="font: 11px sans-serif; fill: #000; opacity: 1;">0</text><text text-anchor="end" transform="translate(-9,178.5)" style="font: 11px sans-serif; fill: #000; opacity: 1;">0.01</text><text text-anchor="end" transform="translate(-9,153.5)" style="font: 11px sans-serif; fill: #000; opacity: 1;">0.02</text><text text-anchor="end" transform="translate(-9,128.5)" style="font: 11px sans-serif; fill: #000; opacity: 1;">0.03</text><text text-anchor="end" transform="translate(-9,103.5)" style="font: 11px sans-serif; fill: #000; opacity: 1;">0.04</text><text text-anchor="end" transform="translate(-9,78.5)" style="font: 11px sans-serif; fill: #000; opacity: 1;">0.05</text><text text-anchor="end" transform="translate(-9,53.5)" style="font: 11px sans-serif; fill: #000; opacity: 1;">0.06</text><text text-anchor="end" transform="translate(-9,28.5)" style="font: 11px sans-serif; fill: #000; opacity: 1;">0.07</text><text text-anchor="end" transform="translate(-9,3.5)" style="font: 11px sans-serif; fill: #000; opacity: 1;">0.08</text></g><g class="mark-path" style="pointer-events: none;"><path transform="translate(0.5,0.5)" d="M-6,0H0V200H-6" style="fill: none; stroke: #000; stroke-width: 1;"></path></g><g class="mark-text"><text text-anchor="middle" transform="translate(-42,100) rotate(-90) translate(0,3)" style="font: bold 11px sans-serif; fill: #000;">frequency</text></g></g></g><g class="mark-rect marks"><rect transform="translate(956,66)" width="20" height="134" style="fill: #4682b4;"></rect><rect transform="translate(473,85)" width="20" height="115" style="fill: #4682b4;"></rect><rect transform="translate(242,124)" width="20" height="76" style="fill: #4682b4;"></rect><rect transform="translate(410,24)" width="20" height="176" style="fill: #4682b4;"></rect><rect transform="translate(977,0)" width="20" height="200" style="fill: #4682b4;"></rect><rect transform="translate(431,44)" width="20" height="156" style="fill: #4682b4;"></rect><rect transform="translate(284,97)" width="20" height="103" style="fill: #4682b4;"></rect><rect transform="translate(830,169)" width="20" height="31" style="fill: #4682b4;"></rect><rect transform="translate(536,135)" width="20" height="65" style="fill: #4682b4;"></rect><rect transform="translate(452,65)" width="20" height="135" style="fill: #4682b4;"></rect><rect transform="translate(914,126)" width="20" height="74" style="fill: #4682b4;"></rect><rect transform="translate(326,101)" width="20" height="99" style="fill: #4682b4;"></rect><rect transform="translate(347,124)" width="20" height="76" style="fill: #4682b4;"></rect><rect transform="translate(515,115)" width="20" height="85" style="fill: #4682b4;"></rect><rect transform="translate(935,98)" width="20" height="102" style="fill: #4682b4;"></rect><rect transform="translate(200,151)" width="20" height="49" style="fill: #4682b4;"></rect><rect transform="translate(788,180)" width="20" height="20" style="fill: #4682b4;"></rect><rect transform="translate(263,107)" width="20" height="93" style="fill: #4682b4;"></rect><rect transform="translate(809,173)" width="20" height="27" style="fill: #4682b4;"></rect><rect transform="translate(368,143)" width="20" height="57" style="fill: #4682b4;"></rect><rect transform="translate(893,155)" width="20" height="45" style="fill: #4682b4;"></rect><rect transform="translate(305,86)" width="20" height="114" style="fill: #4682b4;"></rect><rect transform="translate(557,145)" width="20" height="55" style="fill: #4682b4;"></rect><rect transform="translate(494,107)" width="20" height="93" style="fill: #4682b4;"></rect><rect transform="translate(221,134)" width="20" height="66" style="fill: #4682b4;"></rect><rect transform="translate(872,158)" width="20" height="42" style="fill: #4682b4;"></rect><rect transform="translate(74,197)" width="20" height="3" style="fill: #4682b4;"></rect><rect transform="translate(389,172)" width="20" height="28" style="fill: #4682b4;"></rect><rect transform="translate(851,162)" width="20" height="38" style="fill: #4682b4;"></rect><rect transform="translate(116,194)" width="20" height="6" style="fill: #4682b4;"></rect><rect transform="translate(158,187)" width="20" height="13" style="fill: #4682b4;"></rect><rect transform="translate(11,200)" width="20" height="0" style="fill: #4682b4;"></rect><rect transform="translate(578,137)" width="20" height="63" style="fill: #4682b4;"></rect><rect transform="translate(179,180)" width="20" height="20" style="fill: #4682b4;"></rect><rect transform="translate(683,198)" width="20" height="2" style="fill: #4682b4;"></rect><rect transform="translate(32,198)" width="20" height="2" style="fill: #4682b4;"></rect><rect transform="translate(746,195)" width="20" height="5" style="fill: #4682b4;"></rect><rect transform="translate(95,196)" width="20" height="4" style="fill: #4682b4;"></rect><rect transform="translate(662,199)" width="20" height="1" style="fill: #4682b4;"></rect><rect transform="translate(137,191)" width="20" height="9" style="fill: #4682b4;"></rect><rect transform="translate(704,198)" width="20" height="2" style="fill: #4682b4;"></rect><rect transform="translate(767,193)" width="20" height="7" style="fill: #4682b4;"></rect><rect transform="translate(53,198)" width="20" height="2" style="fill: #4682b4;"></rect><rect transform="translate(725,196)" width="20" height="4" style="fill: #4682b4;"></rect><rect transform="translate(641,199)" width="20" height="1" style="fill: #4682b4;"></rect><rect transform="translate(620,199)" width="20" height="1" style="fill: #4682b4;"></rect><rect transform="translate(599,200)" width="20" height="0" style="fill: #4682b4;"></rect></g></g></g></g></g></g></svg>