<?xml version="1.0" encoding="utf-8"?>
<!-- Generator: Adobe Illustrator 27.0.1, SVG Export Plug-In . SVG Version: 6.00 Build 0)  -->
<svg version="1.1" id="Layer_1" xmlns="http://www.w3.org/2000/svg" xmlns:xlink="http://www.w3.org/1999/xlink" x="0px" y="0px"
	 viewBox="0 0 403 291" style="enable-background:new 0 0 403 291;" xml:space="preserve">
<style type="text/css">
	.st0{fill:none;}
	.st1{fill:none;stroke:#000000;}
	.st2{font-family:'ArialMT';}
	.st3{font-size:11px;}
	.st4{font-family:'Arial-BoldMT';}
	.st5{fill:none;stroke:#000000;stroke-opacity:0.15;}
	.st6{fill:#B27547;}
	.st7{fill:#4682B4;}
</style>
<g transform="translate(60,12)">
	<g>
		<g transform="translate(0,0)">
			<rect class="st0" width="1" height="1"/>
			<g>
				<g transform="translate(0,0)">
					<rect class="st0" width="336" height="200"/>
					<g>
						<g transform="translate(0,200)">
							<polygon class="st0" points="0,0 0,0 0,0 							"/>
							<g>
								<line class="st1" x1="14.5" y1="0" x2="14.5" y2="6"/>
								<line class="st1" x1="36.5" y1="0" x2="36.5" y2="6"/>
								<line class="st1" x1="58.5" y1="0" x2="58.5" y2="6"/>
								<line class="st1" x1="80.5" y1="0" x2="80.5" y2="6"/>
								<line class="st1" x1="102.5" y1="0" x2="102.5" y2="6"/>
								<line class="st1" x1="124.5" y1="0" x2="124.5" y2="6"/>
								<line class="st1" x1="146.5" y1="0" x2="146.5" y2="6"/>
								<line class="st1" x1="168.5" y1="0" x2="168.5" y2="6"/>
								<line class="st1" x1="190.5" y1="0" x2="190.5" y2="6"/>
								<line class="st1" x1="212.5" y1="0" x2="212.5" y2="6"/>
								<line class="st1" x1="234.5" y1="0" x2="234.5" y2="6"/>
								<line class="st1" x1="256.5" y1="0" x2="256.5" y2="6"/>
								<line class="st1" x1="278.5" y1="0" x2="278.5" y2="6"/>
								<line class="st1" x1="300.5" y1="0" x2="300.5" y2="6"/>
								<line class="st1" x1="322.5" y1="0" x2="322.5" y2="6"/>
							</g>
							<g>
								<text transform="matrix(-1.836970e-16 -1 1 -1.836970e-16 17.5 57.915)" class="st2 st3">Not win17</text>
								<text transform="matrix(-1.836970e-16 -1 1 -1.836970e-16 39.5 57.915)" class="st2 st3">Not win18</text>
								<text transform="matrix(-1.836970e-16 -1 1 -1.836970e-16 61.5 57.915)" class="st2 st3">Not win19</text>
								<text transform="matrix(-1.836970e-16 -1 1 -1.836970e-16 83.5 57.915)" class="st2 st3">Not win20</text>
								<text transform="matrix(-1.836970e-16 -1 1 -1.836970e-16 105.5 57.915)" class="st2 st3">Not win21</text>
								<text transform="matrix(-1.836970e-16 -1 1 -1.836970e-16 127.5 57.915)" class="st2 st3">Not win22</text>
								<text transform="matrix(-1.836970e-16 -1 1 -1.836970e-16 149.5 57.915)" class="st2 st3">Not win23</text>
								<text transform="matrix(-1.836970e-16 -1 1 -1.836970e-16 171.5 57.915)" class="st2 st3">Not win24</text>
								<text transform="matrix(-1.836970e-16 -1 1 -1.836970e-16 193.5 57.915)" class="st2 st3">Not win25</text>
								<text transform="matrix(-1.836970e-16 -1 1 -1.836970e-16 215.5 57.915)" class="st2 st3">Not win26</text>
								<text transform="matrix(-1.836970e-16 -1 1 -1.836970e-16 237.5 40.1797)" class="st2 st3">Win17</text>
								<text transform="matrix(-1.836970e-16 -1 1 -1.836970e-16 259.5 40.1797)" class="st2 st3">Win18</text>
								<text transform="matrix(-1.836970e-16 -1 1 -1.836970e-16 281.5 40.1797)" class="st2 st3">Win19</text>
								<text transform="matrix(-1.836970e-16 -1 1 -1.836970e-16 303.5 40.1797)" class="st2 st3">Win20</text>
								<text transform="matrix(-1.836970e-16 -1 1 -1.836970e-16 325.5 40.1797)" class="st2 st3">Win21</text>
							</g>
							<g>
								<path class="st1" d="M0.5,6.5v-6h336v6"/>
							</g>
							<g>
								<text transform="matrix(1 0 0 1 151.4973 71)" class="st4 st3">(state)</text>
							</g>
						</g>
					</g>
					<g>
						<g transform="translate(0,0)">
							<polygon class="st0" points="0,0 0,0 0,0 							"/>
							<g>
								<line class="st5" x1="0" y1="200.5" x2="336" y2="200.5"/>
								<line class="st5" x1="0" y1="185.5" x2="336" y2="185.5"/>
								<line class="st5" x1="0" y1="169.5" x2="336" y2="169.5"/>
								<line class="st5" x1="0" y1="154.5" x2="336" y2="154.5"/>
								<line class="st5" x1="0" y1="138.5" x2="336" y2="138.5"/>
								<line class="st5" x1="0" y1="123.5" x2="336" y2="123.5"/>
								<line class="st5" x1="0" y1="108.5" x2="336" y2="108.5"/>
								<line class="st5" x1="0" y1="92.5" x2="336" y2="92.5"/>
								<line class="st5" x1="0" y1="77.5" x2="336" y2="77.5"/>
								<line class="st5" x1="0" y1="62.5" x2="336" y2="62.5"/>
								<line class="st5" x1="0" y1="46.5" x2="336" y2="46.5"/>
								<line class="st5" x1="0" y1="31.5" x2="336" y2="31.5"/>
								<line class="st5" x1="0" y1="15.5" x2="336" y2="15.5"/>
								<line class="st5" x1="0" y1="0.5" x2="336" y2="0.5"/>
							</g>
							<g>
								<line class="st1" x1="-6" y1="200.5" x2="0" y2="200.5"/>
								<line class="st1" x1="-6" y1="185.5" x2="0" y2="185.5"/>
								<line class="st1" x1="-6" y1="169.5" x2="0" y2="169.5"/>
								<line class="st1" x1="-6" y1="154.5" x2="0" y2="154.5"/>
								<line class="st1" x1="-6" y1="138.5" x2="0" y2="138.5"/>
								<line class="st1" x1="-6" y1="123.5" x2="0" y2="123.5"/>
								<line class="st1" x1="-6" y1="108.5" x2="0" y2="108.5"/>
								<line class="st1" x1="-6" y1="92.5" x2="0" y2="92.5"/>
								<line class="st1" x1="-6" y1="77.5" x2="0" y2="77.5"/>
								<line class="st1" x1="-6" y1="62.5" x2="0" y2="62.5"/>
								<line class="st1" x1="-6" y1="46.5" x2="0" y2="46.5"/>
								<line class="st1" x1="-6" y1="31.5" x2="0" y2="31.5"/>
								<line class="st1" x1="-6" y1="15.5" x2="0" y2="15.5"/>
								<line class="st1" x1="-6" y1="0.5" x2="0" y2="0.5"/>
							</g>
							<g>
								<text transform="matrix(1 0 0 1 -24.2915 203.5)" class="st2 st3">0.0</text>
								<text transform="matrix(1 0 0 1 -36.5269 188.5)" class="st2 st3">0.010</text>
								<text transform="matrix(1 0 0 1 -36.5269 172.5)" class="st2 st3">0.020</text>
								<text transform="matrix(1 0 0 1 -36.5269 157.5)" class="st2 st3">0.030</text>
								<text transform="matrix(1 0 0 1 -36.5269 141.5)" class="st2 st3">0.040</text>
								<text transform="matrix(1 0 0 1 -36.5269 126.5)" class="st2 st3">0.050</text>
								<text transform="matrix(1 0 0 1 -36.5269 111.5)" class="st2 st3">0.060</text>
								<text transform="matrix(1 0 0 1 -36.5269 95.5)" class="st2 st3">0.070</text>
								<text transform="matrix(1 0 0 1 -36.5269 80.5)" class="st2 st3">0.080</text>
								<text transform="matrix(1 0 0 1 -36.5269 65.5)" class="st2 st3">0.090</text>
								<text transform="matrix(1 0 0 1 -30.4092 49.5)" class="st2 st3">0.10</text>
								<text transform="matrix(1 0 0 1 -29.5928 34.5)" class="st2 st3">0.11</text>
								<text transform="matrix(1 0 0 1 -30.4092 18.5)" class="st2 st3">0.12</text>
								<text transform="matrix(1 0 0 1 -30.4092 3.5)" class="st2 st3">0.13</text>
							</g>
							<g>
								<path class="st1" d="M-5.5,0.5h6v200h-6"/>
							</g>
							<g>
								<text transform="matrix(6.123234e-17 -1 1 6.123234e-17 -45 126.2861)" class="st4 st3">frequency</text>
							</g>
						</g>
					</g>
					<g>
						<rect x="246" y="109" class="st6" width="20" height="91"/>
						<rect x="136" y="96" class="st7" width="20" height="104"/>
						<rect x="290" y="9" class="st6" width="20" height="191"/>
						<rect x="158" y="112" class="st7" width="20" height="88"/>
						<rect x="224" y="137" class="st6" width="20" height="63"/>
						<rect x="26" y="80" class="st7" width="20" height="120"/>
						<rect x="180" y="123" class="st7" width="20" height="77"/>
						<rect x="4" y="40" class="st7" width="20" height="160"/>
						<rect x="312" y="35" class="st6" width="20" height="165"/>
						<rect x="48" y="113" class="st7" width="20" height="87"/>
						<rect x="114" y="89" class="st7" width="20" height="111"/>
						<rect x="268" y="81" class="st6" width="20" height="119"/>
						<rect x="202" y="139" class="st7" width="20" height="61"/>
						<rect x="70" y="121" class="st7" width="20" height="79"/>
						<rect x="92" y="178" class="st7" width="20" height="22"/>
					</g>
				</g>
			</g>
		</g>
	</g>
</g>
</svg>
